<svg width="192" height="250" viewBox="0 0 192 250" fill="none" xmlns="http://www.w3.org/2000/svg">
<rect y="29" width="192" height="192" rx="25" fill="#6C4A93"/>
<path d="M34.814 186.372H40.6279V192.186H34.814V186.372ZM34.814 180.558H40.6279V186.372H34.814V180.558ZM40.6279 180.558H46.4419V186.372H40.6279V180.558ZM46.4419 174.744H52.2558V180.558H46.4419V174.744ZM46.4419 168.93H52.2558V174.744H46.4419V168.93ZM52.2558 168.93H58.0698V174.744H52.2558V168.93ZM69.6977 168.93H75.5116V174.744H69.6977V168.93ZM63.8837 163.116H69.6977V168.93H63.8837V163.116ZM63.8837 157.302H69.6977V163.116H63.8837V157.302ZM69.6977 157.302H75.5116V163.116H69.6977V157.302ZM69.6977 163.116H75.5116V168.93H69.6977V163.116ZM81.3256 163.116H87.1395V168.93H81.3256V163.116ZM81.3256 168.93H87.1395V174.744H81.3256V168.93ZM75.5116 168.93H81.3256V174.744H75.5116V168.93ZM75.5116 163.116H81.3256V168.93H75.5116V163.116ZM92.9535 168.93H98.7674V174.744H92.9535V168.93ZM81.3256 174.744H87.1395V180.558H81.3256V174.744ZM75.5116 174.744H81.3256V180.558H75.5116V174.744ZM81.3256 180.558H87.1395V186.372H81.3256V180.558ZM87.1395 180.558H92.9535V186.372H87.1395V180.558ZM92.9535 180.558H98.7674V186.372H92.9535V180.558ZM92.9535 186.372H98.7674V192.186H92.9535V186.372ZM87.1395 186.372H92.9535V192.186H87.1395V186.372ZM87.1395 174.744H92.9535V180.558H87.1395V174.744ZM92.9535 174.744H98.7674V180.558H92.9535V174.744ZM139.465 163.116H145.279V168.93H139.465V163.116ZM139.465 157.302H145.279V163.116H139.465V157.302ZM145.279 157.302H151.093V163.116H145.279V157.302ZM151.093 151.488H156.907V157.302H151.093V151.488ZM151.093 145.674H156.907V151.488H151.093V145.674ZM127.837 151.488H133.651V157.302H127.837V151.488ZM133.651 151.488H139.465V157.302H133.651V151.488ZM145.279 139.86H151.093V145.674H145.279V139.86ZM145.279 134.046H151.093V139.86H145.279V134.046ZM139.465 134.046H145.279V139.86H139.465V134.046ZM133.651 128.233H139.465V134.046H133.651V128.233ZM133.651 122.419H139.465V128.233H133.651V122.419ZM127.837 122.419H133.651V128.233H127.837V122.419ZM151.093 139.86H156.907V145.674H151.093V139.86ZM151.093 134.046H156.907V139.86H151.093V134.046ZM139.465 128.233H145.279V134.046H139.465V128.233ZM139.465 122.419H145.279V128.233H139.465V122.419ZM145.279 128.233H151.093V134.046H145.279V128.233ZM127.837 116.605H133.651V122.419H127.837V116.605ZM98.7674 104.977H104.581V110.791H98.7674V104.977ZM104.581 104.977H110.395V110.791H104.581V104.977ZM122.023 116.605H127.837V122.419H122.023V116.605ZM116.209 110.791H122.023V116.605H116.209V110.791ZM116.209 116.605H122.023V122.419H116.209V116.605ZM110.395 110.791H116.209V116.605H110.395V110.791ZM104.581 110.791H110.395V116.605H104.581V110.791ZM110.395 116.605H116.209V122.419H110.395V116.605ZM122.023 145.674H127.837V151.488H122.023V145.674ZM116.209 145.674H122.023V151.488H116.209V145.674ZM110.395 145.674H116.209V151.488H110.395V145.674ZM104.581 139.86H110.395V145.674H104.581V139.86ZM110.395 139.86H116.209V145.674H110.395V139.86ZM98.7674 134.046H104.581V139.86H98.7674V134.046ZM92.9535 134.046H98.7674V139.86H92.9535V134.046ZM98.7674 139.86H104.581V145.674H98.7674V139.86ZM87.1395 134.046H92.9535V139.86H87.1395V134.046ZM87.1395 128.233H92.9535V134.046H87.1395V128.233ZM58.0698 87.5349H63.8837V93.3488H58.0698V87.5349ZM63.8837 75.907H69.6977V81.7209H63.8837V75.907ZM75.5116 58.4651H81.3256V64.2791H75.5116V58.4651ZM81.3256 58.4651H87.1395V64.2791H81.3256V58.4651ZM92.9535 99.1628H98.7674V104.977H92.9535V99.1628ZM122.023 75.907H127.837V81.7209H122.023V75.907ZM122.023 70.093H127.837V75.907H122.023V70.093ZM127.837 75.907H133.651V81.7209H127.837V75.907ZM122.023 81.7209H127.837V87.5349H122.023V81.7209ZM127.837 81.7209H133.651V87.5349H127.837V81.7209ZM139.465 70.093H145.279V75.907H139.465V70.093ZM133.651 75.907H139.465V81.7209H133.651V75.907ZM116.209 70.093H122.023V75.907H116.209V70.093ZM110.395 70.093H116.209V75.907H110.395V70.093ZM110.395 75.907H116.209V81.7209H110.395V75.907ZM116.209 75.907H122.023V81.7209H116.209V75.907ZM104.581 70.093H110.395V75.907H104.581V70.093ZM116.209 64.2791H122.023V70.093H116.209V64.2791ZM110.395 58.4651H116.209V64.2791H110.395V58.4651ZM104.581 58.4651H110.395V64.2791H104.581V58.4651ZM98.7674 58.4651H104.581V64.2791H98.7674V58.4651ZM87.1395 64.2791H92.9535V70.093H87.1395V64.2791ZM92.9535 58.4651H98.7674V64.2791H92.9535V58.4651ZM87.1395 58.4651H92.9535V64.2791H87.1395V58.4651ZM104.581 64.2791H110.395V70.093H104.581V64.2791ZM110.395 64.2791H116.209V70.093H110.395V64.2791ZM98.7674 64.2791H104.581V70.093H98.7674V64.2791ZM92.9535 64.2791H98.7674V70.093H92.9535V64.2791ZM145.279 64.2791H151.093V70.093H145.279V64.2791ZM151.093 58.4651H156.907V64.2791H151.093V58.4651ZM40.6279 174.744H46.4419V180.558H40.6279V174.744ZM98.7674 52.6512H104.581V58.4651H98.7674V52.6512ZM92.9535 52.6512H98.7674V58.4651H92.9535V52.6512ZM87.1395 52.6512H92.9535V58.4651H87.1395V52.6512ZM116.209 81.7209H122.023V87.5349H116.209V81.7209ZM104.581 180.558H110.395V186.372H104.581V180.558ZM133.651 157.302H139.465V163.116H133.651V157.302ZM104.581 186.372H110.395V192.186H104.581V186.372ZM110.395 186.372H116.209V192.186H110.395V186.372ZM116.209 180.558H122.023V186.372H116.209V180.558ZM110.395 180.558H116.209V186.372H110.395V180.558ZM133.651 168.93H139.465V174.744H133.651V168.93ZM52.2558 163.116H58.0698V168.93H52.2558V163.116ZM133.651 163.116H139.465V168.93H133.651V163.116ZM46.4419 99.1628H52.2558V104.977H46.4419V99.1628ZM46.4419 93.3488H52.2558V99.1628H46.4419V93.3488ZM58.0698 75.907H63.8837V81.7209H58.0698V75.907ZM63.8837 70.093H69.6977V75.907H63.8837V70.093ZM63.8837 64.2791H69.6977V70.093H63.8837V64.2791ZM46.4419 87.5349H52.2558V93.3488H46.4419V87.5349ZM46.4419 81.7209H52.2558V87.5349H46.4419V81.7209ZM52.2558 75.907H58.0698V81.7209H52.2558V75.907ZM52.2558 70.093H58.0698V75.907H52.2558V70.093ZM58.0698 70.093H63.8837V75.907H58.0698V70.093ZM58.0698 64.2791H63.8837V70.093H58.0698V64.2791ZM63.8837 58.4651H69.6977V64.2791H63.8837V58.4651ZM69.6977 58.4651H75.5116V64.2791H69.6977V58.4651ZM69.6977 52.6512H75.5116V58.4651H69.6977V52.6512ZM81.3256 52.6512H87.1395V58.4651H81.3256V52.6512ZM75.5116 52.6512H81.3256V58.4651H75.5116V52.6512ZM52.2558 64.2791H58.0698V70.093H52.2558V64.2791ZM58.0698 58.4651H63.8837V64.2791H58.0698V58.4651ZM122.023 64.2791H127.837V70.093H122.023V64.2791ZM63.8837 168.93H69.6977V174.744H63.8837V168.93ZM63.8837 81.7209H69.6977V87.5349H63.8837V81.7209ZM75.5116 93.3488H81.3256V99.1628H75.5116V93.3488ZM81.3256 93.3488H87.1395V99.1628H81.3256V93.3488ZM92.9535 104.977H98.7674V110.791H92.9535V104.977ZM104.581 116.605H110.395V122.419H104.581V116.605ZM127.837 128.233H133.651V134.046H127.837V128.233ZM122.023 151.488H127.837V157.302H122.023V151.488ZM116.209 186.372H122.023V192.186H116.209V186.372ZM122.023 180.558H127.837V186.372H122.023V180.558ZM58.0698 157.302H63.8837V163.116H58.0698V157.302ZM58.0698 168.93H63.8837V174.744H58.0698V168.93ZM58.0698 163.116H63.8837V168.93H58.0698V163.116ZM98.7674 116.605H104.581V122.419H98.7674V116.605ZM98.7674 110.791H104.581V116.605H98.7674V110.791ZM69.6977 174.744H75.5116V180.558H69.6977V174.744ZM63.8837 174.744H69.6977V180.558H63.8837V174.744ZM75.5116 180.558H81.3256V186.372H75.5116V180.558ZM133.651 70.093H139.465V75.907H133.651V70.093ZM151.093 52.6512H156.907V58.4651H151.093V52.6512ZM145.279 58.4651H151.093V64.2791H145.279V58.4651ZM139.465 64.2791H145.279V70.093H139.465V64.2791ZM98.7674 70.093H104.581V75.907H98.7674V70.093ZM58.0698 81.7209H63.8837V87.5349H58.0698V81.7209ZM52.2558 81.7209H58.0698V87.5349H52.2558V81.7209ZM63.8837 87.5349H69.6977V93.3488H63.8837V87.5349ZM63.8837 93.3488H69.6977V99.1628H63.8837V93.3488ZM69.6977 93.3488H75.5116V99.1628H69.6977V93.3488ZM69.6977 87.5349H75.5116V93.3488H69.6977V87.5349ZM75.5116 99.1628H81.3256V104.977H75.5116V99.1628ZM87.1395 104.977H92.9535V110.791H87.1395V104.977ZM81.3256 99.1628H87.1395V104.977H81.3256V99.1628ZM87.1395 99.1628H92.9535V104.977H87.1395V99.1628ZM110.395 122.419H116.209V128.233H110.395V122.419ZM116.209 122.419H122.023V128.233H116.209V122.419ZM122.023 128.233H127.837V134.046H122.023V128.233ZM122.023 122.419H127.837V128.233H122.023V122.419ZM133.651 134.046H139.465V139.86H133.651V134.046ZM98.7674 180.558H104.581V186.372H98.7674V180.558ZM98.7674 186.372H104.581V192.186H98.7674V186.372ZM127.837 180.558H133.651V186.372H127.837V180.558ZM133.651 174.744H139.465V180.558H133.651V174.744ZM139.465 168.93H145.279V174.744H139.465V168.93ZM145.279 163.116H151.093V168.93H145.279V163.116ZM151.093 157.302H156.907V163.116H151.093V157.302ZM145.279 168.93H151.093V174.744H145.279V168.93ZM139.465 174.744H145.279V180.558H139.465V174.744ZM133.651 180.558H139.465V186.372H133.651V180.558ZM46.4419 75.907H52.2558V81.7209H46.4419V75.907ZM122.023 186.372H127.837V192.186H122.023V186.372ZM75.5116 122.419H81.3256V128.233H75.5116V122.419ZM63.8837 116.605H69.6977V122.419H63.8837V116.605ZM46.4419 104.977H52.2558V110.791H46.4419V104.977ZM52.2558 87.5349H58.0698V93.3488H52.2558V87.5349ZM52.2558 93.3488H58.0698V99.1628H52.2558V93.3488ZM58.0698 93.3488H63.8837V99.1628H58.0698V93.3488ZM63.8837 99.1628H69.6977V104.977H63.8837V99.1628ZM69.6977 99.1628H75.5116V104.977H69.6977V99.1628ZM92.9535 110.791H98.7674V116.605H92.9535V110.791ZM87.1395 110.791H92.9535V116.605H87.1395V110.791ZM81.3256 104.977H87.1395V110.791H81.3256V104.977ZM75.5116 104.977H81.3256V110.791H75.5116V104.977ZM52.2558 110.791H58.0698V116.605H52.2558V110.791ZM58.0698 174.744H63.8837V180.558H58.0698V174.744ZM69.6977 180.558H75.5116V186.372H69.6977V180.558ZM81.3256 186.372H87.1395V192.186H81.3256V186.372ZM52.2558 174.744H58.0698V180.558H52.2558V174.744ZM63.8837 180.558H69.6977V186.372H63.8837V180.558ZM75.5116 186.372H81.3256V192.186H75.5116V186.372ZM75.5116 157.302H81.3256V163.116H75.5116V157.302ZM87.1395 163.116H92.9535V168.93H87.1395V163.116ZM87.1395 168.93H92.9535V174.744H87.1395V168.93ZM98.7674 174.744H104.581V180.558H98.7674V174.744ZM98.7674 168.93H104.581V174.744H98.7674V168.93ZM104.581 174.744H110.395V180.558H104.581V174.744ZM110.395 174.744H116.209V180.558H110.395V174.744ZM81.3256 128.233H87.1395V134.046H81.3256V128.233ZM75.5116 128.233H81.3256V134.046H75.5116V128.233ZM63.8837 122.419H69.6977V128.233H63.8837V122.419ZM69.6977 122.419H75.5116V128.233H69.6977V122.419ZM58.0698 116.605H63.8837V122.419H58.0698V116.605ZM52.2558 116.605H58.0698V122.419H52.2558V116.605ZM46.4419 110.791H52.2558V116.605H46.4419V110.791ZM104.581 75.907H110.395V81.7209H104.581V75.907ZM92.9535 70.093H98.7674V75.907H92.9535V70.093ZM81.3256 64.2791H87.1395V70.093H81.3256V64.2791ZM69.6977 81.7209H75.5116V87.5349H69.6977V81.7209ZM75.5116 87.5349H81.3256V93.3488H75.5116V87.5349ZM87.1395 192.186H92.9535V198H87.1395V192.186ZM92.9535 192.186H98.7674V198H92.9535V192.186ZM98.7674 192.186H104.581V198H98.7674V192.186ZM104.581 192.186H110.395V198H104.581V192.186ZM110.395 192.186H116.209V198H110.395V192.186ZM29 186.372H34.814V192.186H29V186.372ZM29 192.186H34.814V198H29V192.186ZM104.581 52.6512H110.395V58.4651H104.581V52.6512ZM116.209 58.4651H122.023V64.2791H116.209V58.4651ZM127.837 70.093H133.651V75.907H127.837V70.093ZM127.837 64.2791H133.651V70.093H127.837V64.2791ZM87.1395 93.3488H92.9535V99.1628H87.1395V93.3488ZM98.7674 99.1628H104.581V104.977H98.7674V99.1628ZM110.395 104.977H116.209V110.791H110.395V104.977ZM122.023 110.791H127.837V116.605H122.023V110.791ZM133.651 116.605H139.465V122.419H133.651V116.605ZM145.279 122.419H151.093V128.233H145.279V122.419ZM151.093 128.233H156.907V134.046H151.093V128.233ZM145.279 145.674H151.093V151.488H145.279V145.674ZM145.279 151.488H151.093V157.302H145.279V151.488ZM139.465 151.488H145.279V157.302H139.465V151.488ZM58.0698 99.1628H63.8837V104.977H58.0698V99.1628ZM52.2558 99.1628H58.0698V104.977H52.2558V99.1628ZM52.2558 104.977H58.0698V110.791H52.2558V104.977ZM127.837 186.372H133.651V192.186H127.837V186.372ZM116.209 192.186H122.023V198H116.209V192.186ZM127.837 174.744H133.651V180.558H127.837V174.744ZM133.651 64.2791H139.465V70.093H133.651V64.2791ZM110.395 81.7209H116.209V87.5349H110.395V81.7209ZM98.7674 75.907H104.581V81.7209H98.7674V75.907ZM87.1395 70.093H92.9535V75.907H87.1395V70.093ZM75.5116 64.2791H81.3256V70.093H75.5116V64.2791ZM69.6977 64.2791H75.5116V70.093H69.6977V64.2791Z" fill="#F5C32C"/>
</svg>
