<svg width="512" height="700" viewBox="0 0 512 700" fill="none" xmlns="http://www.w3.org/2000/svg">
<rect y="94" width="512" height="512" rx="60" fill="#6C4A93"/>
<path d="M85.2791 520.442H101.558V536.721H85.2791V520.442ZM85.2791 504.163H101.558V520.442H85.2791V504.163ZM101.558 504.163H117.837V520.442H101.558V504.163ZM117.837 487.884H134.116V504.163H117.837V487.884ZM117.837 471.605H134.116V487.884H117.837V471.605ZM134.116 471.605H150.395V487.884H134.116V471.605ZM182.953 471.605H199.233V487.884H182.953V471.605ZM166.674 455.325H182.953V471.605H166.674V455.325ZM166.674 439.046H182.953V455.325H166.674V439.046ZM182.953 439.046H199.233V455.325H182.953V439.046ZM182.953 455.325H199.233V471.605H182.953V455.325ZM215.512 455.325H231.791V471.605H215.512V455.325ZM215.512 471.605H231.791V487.884H215.512V471.605ZM199.233 471.605H215.512V487.884H199.233V471.605ZM199.233 455.325H215.512V471.605H199.233V455.325ZM248.07 471.605H264.349V487.884H248.07V471.605ZM215.512 487.884H231.791V504.163H215.512V487.884ZM199.233 487.884H215.512V504.163H199.233V487.884ZM215.512 504.163H231.791V520.442H215.512V504.163ZM231.791 504.163H248.07V520.442H231.791V504.163ZM248.07 504.163H264.349V520.442H248.07V504.163ZM248.07 520.442H264.349V536.721H248.07V520.442ZM231.791 520.442H248.07V536.721H231.791V520.442ZM231.791 487.884H248.07V504.163H231.791V487.884ZM248.07 487.884H264.349V504.163H248.07V487.884ZM378.302 455.325H394.581V471.605H378.302V455.325ZM378.302 439.046H394.581V455.325H378.302V439.046ZM394.581 439.046H410.86V455.325H394.581V439.046ZM410.86 422.767H427.139V439.046H410.86V422.767ZM410.86 406.488H427.139V422.767H410.86V406.488ZM345.744 422.767H362.023V439.046H345.744V422.767ZM362.023 422.767H378.302V439.046H362.023V422.767ZM394.581 390.209H410.86V406.488H394.581V390.209ZM394.581 373.93H410.86V390.209H394.581V373.93ZM378.302 373.93H394.581V390.209H378.302V373.93ZM362.023 357.651H378.302V373.93H362.023V357.651ZM362.023 341.372H378.302V357.651H362.023V341.372ZM345.744 341.372H362.023V357.651H345.744V341.372ZM410.86 390.209H427.139V406.488H410.86V390.209ZM410.86 373.93H427.139V390.209H410.86V373.93ZM378.302 357.651H394.581V373.93H378.302V357.651ZM378.302 341.372H394.581V357.651H378.302V341.372ZM394.581 357.651H410.86V373.93H394.581V357.651ZM345.744 325.093H362.023V341.372H345.744V325.093ZM264.349 292.535H280.628V308.814H264.349V292.535ZM280.628 292.535H296.907V308.814H280.628V292.535ZM329.465 325.093H345.744V341.372H329.465V325.093ZM313.186 308.814H329.465V325.093H313.186V308.814ZM313.186 325.093H329.465V341.372H313.186V325.093ZM296.907 308.814H313.186V325.093H296.907V308.814ZM280.628 308.814H296.907V325.093H280.628V308.814ZM296.907 325.093H313.186V341.372H296.907V325.093ZM329.465 406.488H345.744V422.767H329.465V406.488ZM313.186 406.488H329.465V422.767H313.186V406.488ZM296.907 406.488H313.186V422.767H296.907V406.488ZM280.628 390.209H296.907V406.488H280.628V390.209ZM296.907 390.209H313.186V406.488H296.907V390.209ZM264.349 373.93H280.628V390.209H264.349V373.93ZM248.07 373.93H264.349V390.209H248.07V373.93ZM264.349 390.209H280.628V406.488H264.349V390.209ZM231.791 373.93H248.07V390.209H231.791V373.93ZM231.791 357.651H248.07V373.93H231.791V357.651ZM150.395 243.698H166.674V259.977H150.395V243.698ZM166.674 211.14H182.953V227.419H166.674V211.14ZM199.233 162.302H215.512V178.581H199.233V162.302ZM215.512 162.302H231.791V178.581H215.512V162.302ZM248.07 276.256H264.349V292.535H248.07V276.256ZM329.465 211.14H345.744V227.419H329.465V211.14ZM329.465 194.86H345.744V211.14H329.465V194.86ZM345.744 211.14H362.023V227.419H345.744V211.14ZM329.465 227.419H345.744V243.698H329.465V227.419ZM345.744 227.419H362.023V243.698H345.744V227.419ZM378.302 194.86H394.581V211.14H378.302V194.86ZM362.023 211.14H378.302V227.419H362.023V211.14ZM313.186 194.86H329.465V211.14H313.186V194.86ZM296.907 194.86H313.186V211.14H296.907V194.86ZM296.907 211.14H313.186V227.419H296.907V211.14ZM313.186 211.14H329.465V227.419H313.186V211.14ZM280.628 194.86H296.907V211.14H280.628V194.86ZM313.186 178.581H329.465V194.86H313.186V178.581ZM296.907 162.302H313.186V178.581H296.907V162.302ZM280.628 162.302H296.907V178.581H280.628V162.302ZM264.349 162.302H280.628V178.581H264.349V162.302ZM231.791 178.581H248.07V194.86H231.791V178.581ZM248.07 162.302H264.349V178.581H248.07V162.302ZM231.791 162.302H248.07V178.581H231.791V162.302ZM280.628 178.581H296.907V194.86H280.628V178.581ZM296.907 178.581H313.186V194.86H296.907V178.581ZM264.349 178.581H280.628V194.86H264.349V178.581ZM248.07 178.581H264.349V194.86H248.07V178.581ZM394.581 178.581H410.86V194.86H394.581V178.581ZM410.86 162.302H427.139V178.581H410.86V162.302ZM101.558 487.884H117.837V504.163H101.558V487.884ZM264.349 146.023H280.628V162.302H264.349V146.023ZM248.07 146.023H264.349V162.302H248.07V146.023ZM231.791 146.023H248.07V162.302H231.791V146.023ZM313.186 227.419H329.465V243.698H313.186V227.419ZM280.628 504.163H296.907V520.442H280.628V504.163ZM362.023 439.046H378.302V455.325H362.023V439.046ZM280.628 520.442H296.907V536.721H280.628V520.442ZM296.907 520.442H313.186V536.721H296.907V520.442ZM313.186 504.163H329.465V520.442H313.186V504.163ZM296.907 504.163H313.186V520.442H296.907V504.163ZM362.023 471.605H378.302V487.884H362.023V471.605ZM134.116 455.325H150.395V471.605H134.116V455.325ZM362.023 455.325H378.302V471.605H362.023V455.325ZM117.837 276.256H134.116V292.535H117.837V276.256ZM117.837 259.977H134.116V276.256H117.837V259.977ZM150.395 211.14H166.674V227.419H150.395V211.14ZM166.674 194.86H182.953V211.14H166.674V194.86ZM166.674 178.581H182.953V194.86H166.674V178.581ZM117.837 243.698H134.116V259.977H117.837V243.698ZM117.837 227.419H134.116V243.698H117.837V227.419ZM134.116 211.14H150.395V227.419H134.116V211.14ZM134.116 194.86H150.395V211.14H134.116V194.86ZM150.395 194.86H166.674V211.14H150.395V194.86ZM150.395 178.581H166.674V194.86H150.395V178.581ZM166.674 162.302H182.953V178.581H166.674V162.302ZM182.953 162.302H199.233V178.581H182.953V162.302ZM182.953 146.023H199.233V162.302H182.953V146.023ZM215.512 146.023H231.791V162.302H215.512V146.023ZM199.233 146.023H215.512V162.302H199.233V146.023ZM134.116 178.581H150.395V194.86H134.116V178.581ZM150.395 162.302H166.674V178.581H150.395V162.302ZM329.465 178.581H345.744V194.86H329.465V178.581ZM166.674 471.605H182.953V487.884H166.674V471.605ZM166.674 227.419H182.953V243.698H166.674V227.419ZM199.233 259.977H215.512V276.256H199.233V259.977ZM215.512 259.977H231.791V276.256H215.512V259.977ZM248.07 292.535H264.349V308.814H248.07V292.535ZM280.628 325.093H296.907V341.372H280.628V325.093ZM345.744 357.651H362.023V373.93H345.744V357.651ZM329.465 422.767H345.744V439.046H329.465V422.767ZM313.186 520.442H329.465V536.721H313.186V520.442ZM329.465 504.163H345.744V520.442H329.465V504.163ZM150.395 439.046H166.674V455.325H150.395V439.046ZM150.395 471.605H166.674V487.884H150.395V471.605ZM150.395 455.325H166.674V471.605H150.395V455.325ZM264.349 325.093H280.628V341.372H264.349V325.093ZM264.349 308.814H280.628V325.093H264.349V308.814ZM182.953 487.884H199.233V504.163H182.953V487.884ZM166.674 487.884H182.953V504.163H166.674V487.884ZM199.233 504.163H215.512V520.442H199.233V504.163ZM362.023 194.86H378.302V211.14H362.023V194.86ZM410.86 146.023H427.139V162.302H410.86V146.023ZM394.581 162.302H410.86V178.581H394.581V162.302ZM378.302 178.581H394.581V194.86H378.302V178.581ZM264.349 194.86H280.628V211.14H264.349V194.86ZM150.395 227.419H166.674V243.698H150.395V227.419ZM134.116 227.419H150.395V243.698H134.116V227.419ZM166.674 243.698H182.953V259.977H166.674V243.698ZM166.674 259.977H182.953V276.256H166.674V259.977ZM182.953 259.977H199.233V276.256H182.953V259.977ZM182.953 243.698H199.233V259.977H182.953V243.698ZM199.233 276.256H215.512V292.535H199.233V276.256ZM231.791 292.535H248.07V308.814H231.791V292.535ZM215.512 276.256H231.791V292.535H215.512V276.256ZM231.791 276.256H248.07V292.535H231.791V276.256ZM296.907 341.372H313.186V357.651H296.907V341.372ZM313.186 341.372H329.465V357.651H313.186V341.372ZM329.465 357.651H345.744V373.93H329.465V357.651ZM329.465 341.372H345.744V357.651H329.465V341.372ZM362.023 373.93H378.302V390.209H362.023V373.93ZM264.349 504.163H280.628V520.442H264.349V504.163ZM264.349 520.442H280.628V536.721H264.349V520.442ZM345.744 504.163H362.023V520.442H345.744V504.163ZM362.023 487.884H378.302V504.163H362.023V487.884ZM378.302 471.605H394.581V487.884H378.302V471.605ZM394.581 455.325H410.86V471.605H394.581V455.325ZM410.86 439.046H427.139V455.325H410.86V439.046ZM394.581 471.605H410.86V487.884H394.581V471.605ZM378.302 487.884H394.581V504.163H378.302V487.884ZM362.023 504.163H378.302V520.442H362.023V504.163ZM117.837 211.14H134.116V227.419H117.837V211.14ZM329.465 520.442H345.744V536.721H329.465V520.442ZM199.233 341.372H215.512V357.651H199.233V341.372ZM166.674 325.093H182.953V341.372H166.674V325.093ZM117.837 292.535H134.116V308.814H117.837V292.535ZM134.116 243.698H150.395V259.977H134.116V243.698ZM134.116 259.977H150.395V276.256H134.116V259.977ZM150.395 259.977H166.674V276.256H150.395V259.977ZM166.674 276.256H182.953V292.535H166.674V276.256ZM182.953 276.256H199.233V292.535H182.953V276.256ZM248.07 308.814H264.349V325.093H248.07V308.814ZM231.791 308.814H248.07V325.093H231.791V308.814ZM215.512 292.535H231.791V308.814H215.512V292.535ZM199.233 292.535H215.512V308.814H199.233V292.535ZM134.116 308.814H150.395V325.093H134.116V308.814ZM150.395 487.884H166.674V504.163H150.395V487.884ZM182.953 504.163H199.233V520.442H182.953V504.163ZM215.512 520.442H231.791V536.721H215.512V520.442ZM134.116 487.884H150.395V504.163H134.116V487.884ZM166.674 504.163H182.953V520.442H166.674V504.163ZM199.233 520.442H215.512V536.721H199.233V520.442ZM199.233 439.046H215.512V455.325H199.233V439.046ZM231.791 455.325H248.07V471.605H231.791V455.325ZM231.791 471.605H248.07V487.884H231.791V471.605ZM264.349 487.884H280.628V504.163H264.349V487.884ZM264.349 471.605H280.628V487.884H264.349V471.605ZM280.628 487.884H296.907V504.163H280.628V487.884ZM296.907 487.884H313.186V504.163H296.907V487.884ZM215.512 357.651H231.791V373.93H215.512V357.651ZM199.233 357.651H215.512V373.93H199.233V357.651ZM166.674 341.372H182.953V357.651H166.674V341.372ZM182.953 341.372H199.233V357.651H182.953V341.372ZM150.395 325.093H166.674V341.372H150.395V325.093ZM134.116 325.093H150.395V341.372H134.116V325.093ZM117.837 308.814H134.116V325.093H117.837V308.814ZM280.628 211.14H296.907V227.419H280.628V211.14ZM248.07 194.86H264.349V211.14H248.07V194.86ZM215.512 178.581H231.791V194.86H215.512V178.581ZM182.953 227.419H199.233V243.698H182.953V227.419ZM199.233 243.698H215.512V259.977H199.233V243.698ZM231.791 536.721H248.07V553H231.791V536.721ZM248.07 536.721H264.349V553H248.07V536.721ZM264.349 536.721H280.628V553H264.349V536.721ZM280.628 536.721H296.907V553H280.628V536.721ZM296.907 536.721H313.186V553H296.907V536.721ZM69 520.442H85.2791V536.721H69V520.442ZM69 536.721H85.2791V553H69V536.721ZM280.628 146.023H296.907V162.302H280.628V146.023ZM313.186 162.302H329.465V178.581H313.186V162.302ZM345.744 194.86H362.023V211.14H345.744V194.86ZM345.744 178.581H362.023V194.86H345.744V178.581ZM231.791 259.977H248.07V276.256H231.791V259.977ZM264.349 276.256H280.628V292.535H264.349V276.256ZM296.907 292.535H313.186V308.814H296.907V292.535ZM329.465 308.814H345.744V325.093H329.465V308.814ZM362.023 325.093H378.302V341.372H362.023V325.093ZM394.581 341.372H410.86V357.651H394.581V341.372ZM410.86 357.651H427.139V373.93H410.86V357.651ZM394.581 406.488H410.86V422.767H394.581V406.488ZM394.581 422.767H410.86V439.046H394.581V422.767ZM378.302 422.767H394.581V439.046H378.302V422.767ZM150.395 276.256H166.674V292.535H150.395V276.256ZM134.116 276.256H150.395V292.535H134.116V276.256ZM134.116 292.535H150.395V308.814H134.116V292.535ZM345.744 520.442H362.023V536.721H345.744V520.442ZM313.186 536.721H329.465V553H313.186V536.721ZM345.744 487.884H362.023V504.163H345.744V487.884ZM362.023 178.581H378.302V194.86H362.023V178.581ZM296.907 227.419H313.186V243.698H296.907V227.419ZM264.349 211.14H280.628V227.419H264.349V211.14ZM231.791 194.86H248.07V211.14H231.791V194.86ZM199.233 178.581H215.512V194.86H199.233V178.581ZM182.953 178.581H199.233V194.86H182.953V178.581Z" fill="#F5C32C"/>
</svg>
